<svg data-bbox="55.5 20 89.026 159.9" viewBox="0 0 200 200" height="200" width="200" xmlns="http://www.w3.org/2000/svg" data-type="color">
    <g>
        <path d="M140.4 20h-1.8c-1.6.6-3.1 1.2-4.6 2-4.2 3.3-7.4 8.1-9.5 12.8-1.4 3.1-2 6.2-2.5 9.5-.8 4.7-1 9.3-.1 14 .2.9-.8 1.9-1.7 1.3-.5-.3-.9-.6-1.3-.9-1-.6-.5-2 .5-2.2-1-7.6.1-16.1 3.2-23 1.1-2.5 2.5-4.9 4.1-7.1-8.9 6.7-15.3 16.5-13.9 28.1.2 1.5-2.1 1.5-2.3 0-.6-5 0-10.1 2-14.7 3.4-7.8 10.3-14.3 18-18.6-8.2 2.1-19.1 7.5-23.2 21.3 0 0-22.4-28.3-47.1-7.1 8-5.1 18-7.3 27-3.6 5 2.1 9.3 5.8 12 10.5 2.7 4.8 3.8 10.3 4.6 15.7.2 1.5-2 2.1-2.2.6-1.5-10.3-4.8-20.4-15.3-24.7-7.3-3-15.2-1.7-22 1.8.7-.1 1.4-.1 2-.1 6 0 12 1 17.3 3.9 7.4 4.2 10.7 13.1 11.3 21.2.1 1.5-2.2 1.5-2.3 0-.5-6.9-3.3-15.1-9.5-18.8-4.9-2.9-10.3-3.9-15.9-4-4.2-.1-8.4.7-11.7 3.3 6.7-2.6 31.7-9.7 31.1 26.6l40.6-8.6c0 .1-4.5-33 13.2-39.2z" fill="#e45310" data-color="1"/>
        <path d="M118.8 178.1l9.2-14.3-12.8-7 5-7.2-9.4.1 12.5-3-10-14.6 21-6.5-9.5-9.8-33.9-5.6-9.7 4.4 11.7 12.1-15.4 7.1 10.6 14.3-9.2 10.6 13.5 7-12.6 8.3 14.1 5.9 24.9-1.8z" fill="#e8e1c6" data-color="2"/>
        <path d="M128 163.7l-48.2 10.4 12.6-8.3 22.8-9 12.8 6.9z" fill="#e45310" data-color="1"/>
        <path d="M78.9 158.8l41.3-9.3-9.4.1-22.6-1.5c-.1.1-9.3 10.7-9.3 10.7z" fill="#e45310" data-color="1"/>
        <path d="M123.3 146.7l-10-14.6-20.3-5.4-15.4 7.1 45.7 12.9z" fill="#e45310" data-color="1"/>
        <path d="M134.3 125.7l-9.5-9.8-33.9-5.6-9.7 4.4 53.1 11z" fill="#e45310" data-color="1"/>
        <path d="M114.3 53.6c17.3.6 30.9 15.2 30.2 32.6-.6 17.3-15.2 30.9-32.6 30.2-17.3-.6-30.9-15.2-30.2-32.6.6-17.4 15.2-30.9 32.6-30.2z" fill="#e8e1c6" data-color="2"/>
        <path d="M135.7 83.9c0 5.8-4.7 10.5-10.5 10.5s-10.5-4.7-10.5-10.5 4.7-10.5 10.5-10.5 10.5 4.8 10.5 10.5z" fill="#e45310" data-color="1"/>
        <path d="M101.3 80.8h-2.6v-2.4c0-.4-.3-.7-.7-.7-.4 0-.7.3-.7.7v2.4h-2.6c-.4 0-.7.3-.7.7 0 .4.3.7.7.7h2.6v2.4c0 .4.3.7.7.7.4 0 .7-.3.7-.7v-2.4h2.6c.4 0 .7-.3.7-.7 0-.4-.4-.7-.7-.7z" fill="#191810" data-color="3"/>
        <path d="M134.9 69.5h-2.6v-2.4c0-.4-.3-.7-.7-.7-.4 0-.7.3-.7.7v2.4h-2.6c-.4 0-.7.3-.7.7 0 .4.3.7.7.7h2.6v2.4c0 .4.3.7.7.7.4 0 .7-.3.7-.7v-2.4h2.6c.4 0 .7-.3.7-.7 0-.4-.3-.7-.7-.7z" fill="#191810" data-color="3"/>
    </g>
</svg>
